<svg class="diagram-root" style="background: #f5f6f6" xmlns="http://www.w3.org/2000/svg" xmlns:xlink="http://www.w3.org/1999/xlink"><style>.diagram-root { font-family: "Helvetica Neue", sans-serif; font-size: 12px; } .t { overflow: visible; } .t-bg { y: 40; fill: #fff;   } .th { fill: #005aa0;   } .tht { fill: #fff; font-size: 14px;  } .tf { fill: #323c46; overflow: visible; } .tf.pk { fill: #005aa0; font-weight: bold; } .tf.fk { font-weight: bold; } .ty { fill: #adb1b5; font-weight: normal; text-anchor: end; } .r { fill: transparent; stroke: #c3c3c3; stroke-width: 1; } .l { stroke: 1; } .i { fill: #c2c7ce; stroke: #c2c7ce; } .i.ix { fill: #afb3b6; stroke: #000; } .fa { fill: transparent; overflow: visible; } .fa .bg.hover { fill: #f7f7f7; } .c { cy: 12; r: 4; stroke: #d2d2dc; fill: #d2d2dc; } .hr { fill: transparent; stroke: #323c46; stroke-opacity: 0.035; stroke-width: 13; } .dc { stroke: #fa5a3c; fill: #fa5a3c; } .x { stroke: white; stroke-width: 1; } .hl .th { fill: #1b9bff; } .hl .tht {  } .fhl .bg { fill: #e7f4ff; } .fhls .bg {  } .r.hl { stroke: #1b9bff; } .dim { opacity: 0.25; }</style><g class="drawing-wrapper" transform="translate(-32, -19) scale(1,1)"><g class="rs"><path d="M 321 106 m -1, 0 a 1,1 0 1,0 2,0 a 1,1 0 1,0 -2,0 M 321 106 m -0.5, 0 a 0.5,0.5 0 1,0 1,0 a 0.5,0.5 0 1,0 -1,0  M321 106 L321 106 309 106 M315 112 L315 112 315 100 M309 106 Q 281.85 106, 254.7 202 T 200.39 298 M 188.39 298 m -1, 0 a 1,1 0 1,0 2,0 a 1,1 0 1,0 -2,0 M 188.39 298 m -0.5, 0 a 0.5,0.5 0 1,0 1,0 a 0.5,0.5 0 1,0 -1,0  M188.39 298 L188.39 298 200.39 298 M194.39 304 L194.39 304 194.39 292" id="h4229978713" class="r"></path><path d="M 321 131 m -1, 0 a 1,1 0 1,0 2,0 a 1,1 0 1,0 -2,0 M 321 131 m -0.5, 0 a 0.5,0.5 0 1,0 1,0 a 0.5,0.5 0 1,0 -1,0  M321 131 L321 131 309 131 M 321 137 m -1, 0 a 1,1 0 1,0 2,0 a 1,1 0 1,0 -2,0 M 321 137 m -0.5, 0 a 0.5,0.5 0 1,0 1,0 a 0.5,0.5 0 1,0 -1,0  M321 137 L321 137 314 131 321 125 M 321 125 m -1, 0 a 1,1 0 1,0 2,0 a 1,1 0 1,0 -2,0 M 321 125 m -0.5, 0 a 0.5,0.5 0 1,0 1,0 a 0.5,0.5 0 1,0 -1,0  M309 131 Q 285.6 131, 262.2 129.5 T 215.39 128 M 203.39 128 m -1, 0 a 1,1 0 1,0 2,0 a 1,1 0 1,0 -2,0 M 203.39 128 m -0.5, 0 a 0.5,0.5 0 1,0 1,0 a 0.5,0.5 0 1,0 -1,0  M203.39 128 L203.39 128 215.39 128 M209.39 134 L209.39 134 209.39 122" id="h1607168654" class="r"></path><path d="M 188.39 298 m -1, 0 a 1,1 0 1,0 2,0 a 1,1 0 1,0 -2,0 M 188.39 298 m -0.5, 0 a 0.5,0.5 0 1,0 1,0 a 0.5,0.5 0 1,0 -1,0  M188.39 298 L188.39 298 200.39 298 M194.39 304 L194.39 304 194.39 292 M200.39 298 Q 232.05 298, 263.7 307.5 T 327 317 M 339 317 m -1, 0 a 1,1 0 1,0 2,0 a 1,1 0 1,0 -2,0 M 339 317 m -0.5, 0 a 0.5,0.5 0 1,0 1,0 a 0.5,0.5 0 1,0 -1,0  M339 317 L339 317 327 317 M333 323 L333 323 333 311" id="h2286254435" class="r"></path><path d="M 59 323 m -1, 0 a 1,1 0 1,0 2,0 a 1,1 0 1,0 -2,0 M 59 323 m -0.5, 0 a 0.5,0.5 0 1,0 1,0 a 0.5,0.5 0 1,0 -1,0  M59 323 L59 323 47 323 M 59 329 m -1, 0 a 1,1 0 1,0 2,0 a 1,1 0 1,0 -2,0 M 59 329 m -0.5, 0 a 0.5,0.5 0 1,0 1,0 a 0.5,0.5 0 1,0 -1,0  M59 329 L59 329 52 323 59 317 M 59 317 m -1, 0 a 1,1 0 1,0 2,0 a 1,1 0 1,0 -2,0 M 59 317 m -0.5, 0 a 0.5,0.5 0 1,0 1,0 a 0.5,0.5 0 1,0 -1,0  M47 323 C -11 323, -8 128, 42 128 M 54 128 m -1, 0 a 1,1 0 1,0 2,0 a 1,1 0 1,0 -2,0 M 54 128 m -0.5, 0 a 0.5,0.5 0 1,0 1,0 a 0.5,0.5 0 1,0 -1,0  M54 128 L54 128 42 128 M48 134 L48 134 48 122" id="h1397587031" class="r"></path><path d="M 481.04 317 m -1, 0 a 1,1 0 1,0 2,0 a 1,1 0 1,0 -2,0 M 481.04 317 m -0.5, 0 a 0.5,0.5 0 1,0 1,0 a 0.5,0.5 0 1,0 -1,0  M481.04 317 L481.04 317 493.04 317 M487.04 323 L487.04 323 487.04 311 M493.04 317 C 543.04 317, 549.4300000000001 106, 482.39 106 M 470.39 106 m -1, 0 a 1,1 0 1,0 2,0 a 1,1 0 1,0 -2,0 M 470.39 106 m -0.5, 0 a 0.5,0.5 0 1,0 1,0 a 0.5,0.5 0 1,0 -1,0  M470.39 106 L470.39 106 482.39 106 M 470.39 112 m -1, 0 a 1,1 0 1,0 2,0 a 1,1 0 1,0 -2,0 M 470.39 112 m -0.5, 0 a 0.5,0.5 0 1,0 1,0 a 0.5,0.5 0 1,0 -1,0  M470.39 112 L470.39 112 477.39 106 470.39 100 M 470.39 100 m -1, 0 a 1,1 0 1,0 2,0 a 1,1 0 1,0 -2,0 M 470.39 100 m -0.5, 0 a 0.5,0.5 0 1,0 1,0 a 0.5,0.5 0 1,0 -1,0 " id="h211156328" class="r"></path><path d="M 723 371 m -1, 0 a 1,1 0 1,0 2,0 a 1,1 0 1,0 -2,0 M 723 371 m -0.5, 0 a 0.5,0.5 0 1,0 1,0 a 0.5,0.5 0 1,0 -1,0  M723 371 L723 371 711 371 M717 377 L717 377 717 365 M711 371 Q 656.51 371, 602.02 344 T 493.04 317 M 481.04 317 m -1, 0 a 1,1 0 1,0 2,0 a 1,1 0 1,0 -2,0 M 481.04 317 m -0.5, 0 a 0.5,0.5 0 1,0 1,0 a 0.5,0.5 0 1,0 -1,0  M481.04 317 L481.04 317 493.04 317 M487.04 323 L487.04 323 487.04 311" id="h3177548053" class="r"></path><path d="M 716 114 m -1, 0 a 1,1 0 1,0 2,0 a 1,1 0 1,0 -2,0 M 716 114 m -0.5, 0 a 0.5,0.5 0 1,0 1,0 a 0.5,0.5 0 1,0 -1,0  M716 114 L716 114 704 114 M 716 120 m -1, 0 a 1,1 0 1,0 2,0 a 1,1 0 1,0 -2,0 M 716 120 m -0.5, 0 a 0.5,0.5 0 1,0 1,0 a 0.5,0.5 0 1,0 -1,0  M716 120 L716 120 709 114 716 108 M 716 108 m -1, 0 a 1,1 0 1,0 2,0 a 1,1 0 1,0 -2,0 M 716 108 m -0.5, 0 a 0.5,0.5 0 1,0 1,0 a 0.5,0.5 0 1,0 -1,0  M704 114 Q 651.26 114, 598.52 215.5 T 493.04 317 M 481.04 317 m -1, 0 a 1,1 0 1,0 2,0 a 1,1 0 1,0 -2,0 M 481.04 317 m -0.5, 0 a 0.5,0.5 0 1,0 1,0 a 0.5,0.5 0 1,0 -1,0  M481.04 317 L481.04 317 493.04 317 M487.04 323 L487.04 323 487.04 311" id="h3000826536" class="r"></path></g><g class="hrs"></g><g class="ts"><svg width="149.39" height="100" x="54" y="71" id="h475896179" class="t"><rect height="40" width="149.39" class="th"></rect><text x="13" y="25" class="tht">departments</text><rect height="60" width="149.39" class="t-bg"></rect><text x="13" y="61" class="tf pk">dept_no<tspan x="136.39" class="ty">varchar</tspan></text><path d="M7,14A2,2 0 0,1 5,12A2,2 0 0,1 7,10A2,2 0 0,1 9,12A2,2 0 0,1 7,14M12.65,10C11.83,7.67 9.61,6 7, 6A6, 6 0 0, 0 1, 12A6, 6 0 0, 0 7, 18C9.61, 18 11.83, 16.33 12.65, 14H17V18H21V14H23V10H12.65Z" class="i pk" transform="translate(76.37632812499999, 48) scale(0.65)"></path><text x="13" y="86" class="tf">dept_name<tspan x="136.39" class="ty">varchar</tspan></text></svg><svg width="129.39" height="150" x="59" y="241" id="h1676682957" class="t"><rect height="40" width="129.39" class="th"></rect><text x="13" y="25" class="tht">dept_manager</text><rect height="110" width="129.39" class="t-bg"></rect><text x="13" y="61" class="tf pk">emp_no<tspan x="116.38999999999999" class="ty">int</tspan></text><path d="M7,14A2,2 0 0,1 5,12A2,2 0 0,1 7,10A2,2 0 0,1 9,12A2,2 0 0,1 7,14M12.65,10C11.83,7.67 9.61,6 7, 6A6, 6 0 0, 0 1, 12A6, 6 0 0, 0 7, 18C9.61, 18 11.83, 16.33 12.65, 14H17V18H21V14H23V10H12.65Z" class="i pk" transform="translate(83.71617187499999, 48) scale(0.65)"></path><text x="13" y="86" class="tf fk">dept_no<tspan x="116.38999999999999" class="ty">varchar</tspan></text><text x="13" y="111" class="tf">from_date<tspan x="116.38999999999999" class="ty">date</tspan></text><text x="13" y="136" class="tf">to_date<tspan x="116.38999999999999" class="ty">date</tspan></text></svg><svg width="146.06" height="150" x="723" y="314" id="h2472833127" class="t"><rect height="40" width="146.06" class="th"></rect><text x="13" y="25" class="tht">salaries</text><rect height="110" width="146.06" class="t-bg"></rect><text x="13" y="61" class="tf pk">emp_no<tspan x="133.06" class="ty">integer</tspan></text><path d="M7,14A2,2 0 0,1 5,12A2,2 0 0,1 7,10A2,2 0 0,1 9,12A2,2 0 0,1 7,14M12.65,10C11.83,7.67 9.61,6 7, 6A6, 6 0 0, 0 1, 12A6, 6 0 0, 0 7, 18C9.61, 18 11.83, 16.33 12.65, 14H17V18H21V14H23V10H12.65Z" class="i pk" transform="translate(76.36859375, 48) scale(0.65)"></path><text x="13" y="86" class="tf">salary<tspan x="133.06" class="ty">integer</tspan></text><text x="13" y="111" class="tf">from_date<tspan x="133.06" class="ty">date</tspan></text><text x="13" y="136" class="tf">to_date<tspan x="133.06" class="ty">date</tspan></text></svg><svg width="123.38" height="150" x="716" y="57" id="h311790747" class="t"><rect height="40" width="123.38" class="th"></rect><text x="13" y="25" class="tht">titles</text><rect height="110" width="123.38" class="t-bg"></rect><text x="13" y="61" class="tf pk">emp_no<tspan x="110.38" class="ty">int</tspan></text><path d="M7,14A2,2 0 0,1 5,12A2,2 0 0,1 7,10A2,2 0 0,1 9,12A2,2 0 0,1 7,14M12.65,10C11.83,7.67 9.61,6 7, 6A6, 6 0 0, 0 1, 12A6, 6 0 0, 0 7, 18C9.61, 18 11.83, 16.33 12.65, 14H17V18H21V14H23V10H12.65Z" class="i pk" transform="translate(77.706171875, 48) scale(0.65)"></path><text x="13" y="86" class="tf">title<tspan x="110.38" class="ty">varchar</tspan></text><text x="13" y="111" class="tf">from_date<tspan x="110.38" class="ty">date</tspan></text><text x="13" y="136" class="tf">to_date<tspan x="110.38" class="ty">date</tspan></text></svg><svg width="149.39" height="150" x="321" y="49" id="h1090417462" class="t"><rect height="40" width="149.39" class="th"></rect><text x="13" y="25" class="tht">dept_emp</text><rect height="110" width="149.39" class="t-bg"></rect><text x="13" y="61" class="tf pk">emp_no<tspan x="136.39" class="ty">int</tspan></text><path d="M7,14A2,2 0 0,1 5,12A2,2 0 0,1 7,10A2,2 0 0,1 9,12A2,2 0 0,1 7,14M12.65,10C11.83,7.67 9.61,6 7, 6A6, 6 0 0, 0 1, 12A6, 6 0 0, 0 7, 18C9.61, 18 11.83, 16.33 12.65, 14H17V18H21V14H23V10H12.65Z" class="i pk" transform="translate(103.71617187499999, 48) scale(0.65)"></path><text x="13" y="86" class="tf pk">dept_no<tspan x="136.39" class="ty">varchar</tspan></text><path d="M7,14A2,2 0 0,1 5,12A2,2 0 0,1 7,10A2,2 0 0,1 9,12A2,2 0 0,1 7,14M12.65,10C11.83,7.67 9.61,6 7, 6A6, 6 0 0, 0 1, 12A6, 6 0 0, 0 7, 18C9.61, 18 11.83, 16.33 12.65, 14H17V18H21V14H23V10H12.65Z" class="i pk" transform="translate(76.37632812499999, 73) scale(0.65)"></path><text x="13" y="111" class="tf">from_date<tspan x="136.39" class="ty">date</tspan></text><text x="13" y="136" class="tf">to_date<tspan x="136.39" class="ty">date</tspan></text></svg><svg width="142.04" height="200" x="339" y="260" id="h1639608377" class="t"><rect height="40" width="142.04" class="th"></rect><text x="13" y="25" class="tht">employees</text><rect height="160" width="142.04" class="t-bg"></rect><text x="13" y="61" class="tf pk">emp_no<tspan x="129.04" class="ty">int</tspan></text><path d="M7,14A2,2 0 0,1 5,12A2,2 0 0,1 7,10A2,2 0 0,1 9,12A2,2 0 0,1 7,14M12.65,10C11.83,7.67 9.61,6 7, 6A6, 6 0 0, 0 1, 12A6, 6 0 0, 0 7, 18C9.61, 18 11.83, 16.33 12.65, 14H17V18H21V14H23V10H12.65Z" class="i pk" transform="translate(96.36617187499999, 48) scale(0.65)"></path><text x="13" y="86" class="tf">birth_date<tspan x="129.04" class="ty">date</tspan></text><text x="13" y="111" class="tf">first_name<tspan x="129.04" class="ty">varchar</tspan></text><text x="13" y="136" class="tf">last_name<tspan x="129.04" class="ty">varchar</tspan></text><text x="13" y="161" class="tf">gender<tspan x="129.04" class="ty">varchar</tspan></text><text x="13" y="186" class="tf">hire_date<tspan x="129.04" class="ty">date</tspan></text></svg></g></g><text class="qdbd-link" x="10" y="20">www.quickdatabasediagrams.com</text></svg>